<?xml version="1.0" encoding="UTF-8"?>
<svg width="16px" height="16px" viewBox="0 0 16 16" version="1.1" xmlns="http://www.w3.org/2000/svg" xmlns:xlink="http://www.w3.org/1999/xlink">
    <!-- Generator: Sketch 42 (36781) - http://www.bohemiancoding.com/sketch -->
    <title>Shape</title>
    <desc>Created with Sketch.</desc>
    <defs></defs>
    <g id="Symbols" stroke="none" stroke-width="1" fill="none" fill-rule="evenodd">
        <g id="entypo/brush" fill="#000000">
            <path d="M2.2704,10.9176 C1.0712,12.0968 2.084,13.3064 0.4904,15.1008 C-0.2288,15.9112 3.4512,15.664 5.2736,13.8712 C6.0472,13.1112 5.8288,12.0032 4.9992,11.188 C4.1712,10.372 3.044,10.1576 2.2704,10.9176 L2.2704,10.9176 Z M15.5592,0.6976 C14.9432,0.0928 8.1304,5.5528 6.1016,7.5464 C5.0952,8.536 4.7592,9.0664 4.4512,9.4632 C4.3168,9.6352 4.4944,9.6888 4.5736,9.7296 C4.972,9.932 5.2512,10.1216 5.612,10.476 C5.972,10.8304 6.1648,11.1048 6.3712,11.496 C6.4128,11.5752 6.4672,11.7488 6.6416,11.6176 C7.0456,11.3144 7.5856,10.984 8.592,9.9944 C10.62,8 16.1744,1.3016 15.5592,0.6976 L15.5592,0.6976 Z" id="Shape"></path>
        </g>
    </g>
</svg>