<?xml version="1.0" encoding="UTF-8"?>
<svg width="16px" height="14px" viewBox="0 0 16 14" version="1.1" xmlns="http://www.w3.org/2000/svg" xmlns:xlink="http://www.w3.org/1999/xlink">
    <!-- Generator: Sketch 42 (36781) - http://www.bohemiancoding.com/sketch -->
    <title>Shape</title>
    <desc>Created with Sketch.</desc>
    <defs></defs>
    <g id="Symbols" stroke="none" stroke-width="1" fill="none" fill-rule="evenodd">
        <g id="entypo/camera" transform="translate(0.000000, -1.000000)" fill="#000000">
            <path d="M7.9864,6.3456 C6.6736,6.3456 5.6104,7.4104 5.6104,8.7216 C5.6104,10.0344 6.6744,11.0984 7.9864,11.0984 C9.2984,11.0984 10.3632,10.0344 10.3632,8.7216 C10.3632,7.4104 9.2992,6.3456 7.9864,6.3456 L7.9864,6.3456 Z M14.3232,3.9696 L12.4224,3.9696 C12.1608,3.9696 11.8792,3.7672 11.7968,3.5192 L11.3056,2.0448 C11.2224,1.7968 10.9416,1.5944 10.68,1.5944 L5.2936,1.5944 C5.032,1.5944 4.7504,1.7968 4.668,2.0448 L4.1768,3.5192 C4.0936,3.7672 3.812,3.9696 3.5512,3.9696 L1.6504,3.9696 C0.7792,3.9696 0.0664,4.6824 0.0664,5.5536 L0.0664,12.6824 C0.0664,13.5536 0.7792,14.2664 1.6504,14.2664 L14.324,14.2664 C15.1952,14.2664 15.908,13.5536 15.908,12.6824 L15.908,5.5536 C15.908,4.6824 15.1944,3.9696 14.3232,3.9696 L14.3232,3.9696 Z M7.9864,12.6824 C5.7992,12.6824 4.0264,10.9096 4.0264,8.7216 C4.0264,6.5352 5.7992,4.7616 7.9864,4.7616 C10.1736,4.7616 11.9472,6.5352 11.9472,8.7216 C11.9472,10.9096 10.1736,12.6824 7.9864,12.6824 L7.9864,12.6824 Z M13.7688,6.6616 C13.4632,6.6616 13.2152,6.4128 13.2152,6.1072 C13.2152,5.8016 13.4632,5.5528 13.7688,5.5528 C14.0752,5.5528 14.3232,5.8016 14.3232,6.1072 C14.3232,6.4128 14.0752,6.6616 13.7688,6.6616 L13.7688,6.6616 Z" id="Shape"></path>
        </g>
    </g>
</svg>